Release Info:

Complete name     : Underworld.Awakening.2012.DVDRip.Xvid.Ac3-SLRG.avi
Format            : AVI
File size         : 1.36 GiB
Duration          : 1h 28mn
Overall bit rate  : 2 206 Kbps
Source            : DVDR-MPTDVD

Video

Format            : MPEG-4 Visual
Codec ID          : XVID
Duration          : 1h 28mn
Bit rate          : 1 748 Kbps
Width             : 704 pixels
Height            : 288 pixels
Aspect ratio      : 2.40:1
Frame rate        : 23.976 fps
Bit depth         : 8 bits
Compression mode  : Lossy
Stream size       : 1.08 GiB (79%)

Audio

Format            : AC-3
Duration          : 1h 28mn
Bit rate          : 448 Kbps
Channel(s)        : 6 channels
Sampling rate     : 48.0 KHz
Bit depth         : 16 bits
Compression mode  : Lossy
Stream size       : 284 MiB (20%)

iMDB Info:
 
http://www.imdb.com/title/tt1496025/

Ratings: 6.4/10 from 54,198 users   

When human forces discover the existence of the Vampire and Lycan clans, a war to 
eradicate both species commences. The vampire warrioress Selene leads the battle 
against humankind.

Directors : Måns Mårlind, Björn Stein
Writers   : Len Wiseman (screenplay), John Hlavin (screenplay)
Stars     : Kate Beckinsale, Michael Ealy and India Eisley

Screen:
 
http://www.postimg.com/82000/photo-81144.jpg
 
http://www.postimg.com/82000/photo-81143.jpg
 
http://www.postimg.com/82000/photo-81146.jpg